<?xml version="1.0" encoding="UTF-8" standalone="no"?>
<!DOCTYPE svg PUBLIC "-//W3C//DTD SVG 1.1//EN" "http://www.w3.org/Graphics/SVG/1.1/DTD/svg11.dtd">
<svg width="100%" height="100%" viewBox="0 0 134 133" version="1.1" xmlns="http://www.w3.org/2000/svg" xmlns:xlink="http://www.w3.org/1999/xlink" xml:space="preserve" xmlns:serif="http://www.serif.com/" style="fill-rule:evenodd;clip-rule:evenodd;stroke-linejoin:round;stroke-miterlimit:2;">
    <g id="Layer_1-2">
        <g transform="matrix(1.49906,0,0,1.49868,-33.3364,0.702906)">
            <circle cx="67" cy="43.71" r="43.71" style="fill:rgb(29,176,246);"/>
        </g>
        <g transform="matrix(1.49906,0,0,1.49868,-33.3364,0.702906)">
            <path d="M62.54,60.32C63.27,59.9 63.3,51.87 63.3,51.87C63.3,51.87 72.52,48.03 69.2,52.62C67.206,55.371 64.981,57.947 62.55,60.32" style="fill:rgb(16,172,226);fill-rule:nonzero;"/>
        </g>
        <g transform="matrix(1.49906,0,0,1.49868,-33.3364,0.702906)">
            <path d="M83.08,30.51C81.55,29.67 45.76,47.7 46.66,49.88C47.66,52.23 73.97,54.62 77.5,54.61C79.33,54.6 84.61,31.35 83.08,30.51Z" style="fill:white;fill-rule:nonzero;"/>
        </g>
        <g transform="matrix(1.49906,0,0,1.49868,-33.3364,0.702906)">
            <path d="M62.54,60.32C61.97,60.73 59,54.79 58.54,52.79C58.08,51 76.6,36 77.28,36.1C77.96,36.2 63.5,51.64 63.36,53.4C63.36,53.4 63.11,59.91 62.54,60.32" style="fill:rgb(113,218,255);fill-rule:nonzero;"/>
        </g>
    </g>
</svg>
